<svg xmlns="http://www.w3.org/2000/svg" xmlns:xlink="http://www.w3.org/1999/xlink" width="500" zoomAndPan="magnify" viewBox="0 0 375 374.999991" height="500" preserveAspectRatio="xMidYMid meet" version="1.0"><defs><g/><clipPath id="f1d60ed6f9"><path d="M 0 1.972656 L 64 1.972656 L 64 44 L 0 44 Z M 0 1.972656 " clip-rule="nonzero"/></clipPath><clipPath id="16d9a2bd4f"><path d="M 17.25 1.972656 L 46.519531 1.972656 C 56.046875 1.972656 63.769531 9.695312 63.769531 19.222656 L 63.769531 27.144531 C 63.769531 36.671875 56.046875 44.394531 46.519531 44.394531 L 17.25 44.394531 C 7.722656 44.394531 0 36.671875 0 27.144531 L 0 19.222656 C 0 9.695312 7.722656 1.972656 17.25 1.972656 " clip-rule="nonzero"/></clipPath></defs><rect x="-37.5" width="450" fill="#ffffff" y="-37.499999" height="449.999989" fill-opacity="1"/><rect x="-37.5" width="450" fill="#ffffff" y="-37.499999" height="449.999989" fill-opacity="1"/><rect x="-37.5" width="450" fill="#ffffff" y="-37.499999" height="449.999989" fill-opacity="1"/><g clip-path="url(#f1d60ed6f9)"><g clip-path="url(#16d9a2bd4f)"><path fill="#ffffff" d="M 0 1.972656 L 64.097656 1.972656 L 64.097656 43.882812 L 0 43.882812 Z M 0 1.972656 " fill-opacity="1" fill-rule="nonzero"/></g></g><g fill="#000000" fill-opacity="1"><g transform="translate(3.126632, 34.925647)"><g><path d="M 17.0625 -13.3125 C 19.445312 -9.5625 22.175781 -5.671875 25.25 -1.640625 L 25.140625 -0.78125 C 22.398438 -0.1875 19.796875 0.226562 17.328125 0.46875 L 16.46875 0 C 13.8125 -4.550781 11.640625 -8.414062 9.953125 -11.59375 L 9.875 -8.203125 L 10.1875 0 L 2.34375 0 L 2.734375 -7.421875 L 2.34375 -25.25 L 10.296875 -25.25 L 10.03125 -14.71875 L 14.875 -22.515625 L 16.203125 -25.25 L 24.46875 -25.25 Z M 17.0625 -13.3125 "/></g></g></g><g fill="#f0513b" fill-opacity="1"><g transform="translate(27.634373, 34.925647)"><g><path d="M 4.609375 -7.421875 C 5.753906 -7.421875 6.644531 -7.09375 7.28125 -6.4375 C 7.914062 -5.789062 8.234375 -4.878906 8.234375 -3.703125 C 8.234375 -2.453125 7.878906 -1.460938 7.171875 -0.734375 C 6.472656 -0.015625 5.515625 0.34375 4.296875 0.34375 C 3.097656 0.34375 2.1875 0.0234375 1.5625 -0.609375 C 0.9375 -1.242188 0.625 -2.160156 0.625 -3.359375 C 0.625 -4.609375 0.976562 -5.597656 1.6875 -6.328125 C 2.40625 -7.054688 3.378906 -7.421875 4.609375 -7.421875 Z M 4.609375 -7.421875 "/></g></g></g><g fill="#000000" fill-opacity="1"><g transform="translate(36.527894, 34.925647)"><g><path d="M 24.078125 0 L 16.15625 0 L 15.453125 -4.171875 L 15.421875 -4.296875 L 11.59375 -4.375 L 8.390625 -4.21875 L 7.734375 0 L 0.078125 0 L 7.734375 -25.25 L 17.171875 -25.25 Z M 14.25 -9.984375 L 12.53125 -18.265625 L 12.0625 -18.265625 L 9.875 -9.984375 L 12.0625 -9.953125 Z M 14.25 -9.984375 "/></g></g></g></svg>